<?xml version="1.0" encoding="UTF-8"?>
<svg width="68px" height="24px" viewBox="0 0 68 24" version="1.1" xmlns="http://www.w3.org/2000/svg" xmlns:xlink="http://www.w3.org/1999/xlink">
    <!-- Generator: Sketch 45.2 (43514) - http://www.bohemiancoding.com/sketch -->
    <title>Slice</title>
    <desc>Created with Sketch.</desc>
    <defs></defs>
    <g id="Page-1" stroke="none" stroke-width="1" fill="none" fill-rule="evenodd">
        <g id="file_1_">
            <path d="M19,8 L19,23.5 C19,23.775 18.775,24 18.5,24 L0.5,24 C0.225,24 0,23.775 0,23.5 L0,0.5 C0,0.225 0.225,0 0.5,0 L11,0 L11,7.5 C11,7.775 11.225,8 11.5,8 L19,8 Z M12,0 L12,6.5 C12,6.775 12.225,7 12.5,7 L19,7 L12,0 Z" id="Shape" fill="#000000"></path>
            <g id="list_2_" transform="translate(4.000000, 11.000000)" fill="#FFFFFF">
                <path d="M11,8.28571429 C11,8.44285714 10.8697368,8.57142857 10.7105263,8.57142857 L0.289473684,8.57142857 C0.130263158,8.57142857 0,8.44285714 0,8.28571429 L0,7.14285714 C0,6.98571429 0.130263158,6.85714286 0.289473684,6.85714286 L10.7105263,6.85714286 C10.8697368,6.85714286 11,6.98571429 11,7.14285714 L11,8.28571429 Z M11,3.71428571 C11,3.55714286 10.8697368,3.42857143 10.7105263,3.42857143 L0.289473684,3.42857143 C0.130263158,3.42857143 0,3.55714286 0,3.71428571 L0,4.85714286 C0,5.01428571 0.130263158,5.14285714 0.289473684,5.14285714 L10.7105263,5.14285714 C10.8697368,5.14285714 11,5.01428571 11,4.85714286 L11,3.71428571 Z M11,0.285714286 C11,0.128571429 10.8697368,0 10.7105263,0 L0.289473684,0 C0.130263158,0 0,0.128571429 0,0.285714286 L0,1.42857143 C0,1.58571429 0.130263158,1.71428571 0.289473684,1.71428571 L10.7105263,1.71428571 C10.8697368,1.71428571 11,1.58571429 11,1.42857143 L11,0.285714286 Z" id="Shape"></path>
            </g>
        </g>
        <g id="arrow-right_2_" transform="translate(22.000000, 8.000000)" fill="#000000">
            <path d="M5.85160819,10.8187732 L5.85160819,7.45078135 L0.333541667,7.45078135 C0.154742528,7.45078135 0,7.29671571 0,7.1172975 L0,3.88191913 C0,3.70380105 0.154092349,3.54973542 0.333541667,3.54973542 L5.85160819,3.54973542 L5.85160819,0.181743587 C5.85160819,0.00297544289 5.9731916,-0.0535802971 6.11428038,0.0556307871 L12.8943437,5.30101316 C13.0360827,5.41022424 13.0347823,5.58899239 12.8930434,5.69820347 L6.11493055,10.9435858 C5.97384178,11.0540971 5.85160819,10.9968913 5.85160819,10.8187732 Z" id="Shape"></path>
        </g>
        <g id="duplicate_2_-copy" transform="translate(39.000000, 0.000000)" fill="#000000">
            <path d="M11.8340807,13.8197243 L11.8340807,23.5758218 C11.8340807,23.8091198 11.6438901,24 11.411435,24 L0.42264574,24 C0.190190583,24 0,23.8091198 0,23.5758218 L0,9.15376458 C0,8.9204666 0.190190583,8.72958643 0.42264574,8.72958643 L6.76233184,8.72958643 L6.76233184,13.3955461 C6.76233184,13.6288441 6.95252242,13.8197243 7.18497758,13.8197243 L11.8340807,13.8197243 Z M7.60762332,8.72958643 L7.60762332,12.5471898 C7.60762332,12.7804878 7.7978139,12.971368 8.03026906,12.971368 L11.8340807,12.971368 L7.60762332,8.72958643 Z M15.3452915,9.15376458 L15.3452915,4.48780488 L9.00560538,4.48780488 C8.77315022,4.48780488 8.58295964,4.67868505 8.58295964,4.91198303 L8.58295964,7.95418876 L12.809417,12.1959703 L12.809417,19.7582185 L19.9943946,19.7582185 C20.2268498,19.7582185 20.4170404,19.5673383 20.4170404,19.3340403 L20.4170404,9.57794274 L15.7679372,9.57794274 C15.5354821,9.57794274 15.3452915,9.38706257 15.3452915,9.15376458 Z M23.9282511,4.86108165 L23.9282511,0.195121951 L17.588565,0.195121951 C17.3561099,0.195121951 17.1659193,0.386002121 17.1659193,0.619300106 L17.1659193,3.66150583 L21.3923767,7.90328738 L21.3923767,15.4655355 L28.5773543,15.4655355 C28.8098094,15.4655355 29,15.2746554 29,15.0413574 L29,5.28525981 L24.3508969,5.28525981 C24.1184417,5.28525981 23.9282511,5.09437964 23.9282511,4.86108165 Z M16.808296,8.72958643 L20.6121076,8.72958643 L16.3856502,4.48780488 L16.3856502,8.30540827 C16.3856502,8.53870626 16.5758408,8.72958643 16.808296,8.72958643 Z M25.1726457,4.34178765 L28.9764574,4.34178765 L24.75,0.100006104 L24.75,3.9176095 C24.75,4.15090748 24.9401906,4.34178765 25.1726457,4.34178765 Z" id="Shape"></path>
        </g>
    </g>
</svg>