<?xml version="1.0" encoding="UTF-8"?>
<svg width="24px" height="19px" viewBox="0 0 24 19" version="1.1" xmlns="http://www.w3.org/2000/svg" xmlns:xlink="http://www.w3.org/1999/xlink">
    <!-- Generator: Sketch 46.2 (44496) - http://www.bohemiancoding.com/sketch -->
    <title>justification</title>
    <desc>Created with Sketch.</desc>
    <defs></defs>
    <g id="Page-1" stroke="none" stroke-width="1" fill="none" fill-rule="evenodd">
        <g id="chat_1_" transform="translate(12.000000, 9.500000) scale(-1, 1) translate(-12.000000, -9.500000) " fill="#000000">
            <path d="M23.885,8.338 C23.885,12.906 18.565,16.609 12.001,16.609 C10.288,16.609 8.662,16.354 7.191,15.902 L2.36,18.882 C2.121,19.007 1.984,18.896 2.055,18.635 L3.19,13.889 C1.278,12.42 0.115,10.473 0.115,8.337 C0.115,3.769 5.436,0.065 12,0.065 C18.564,0.065 23.885,3.77 23.885,8.338 Z M17.2999878,10.065 L8.29998779,10.065 L7.79998779,10.065 L7.79998779,12.065 L8.29998779,12.065 L17.2999878,12.065 L17.7999878,12.065 L17.7999878,10.065 L17.2999878,10.065 Z M17.3357021,7.065 L5.26427351,7.065 L4.79998779,7.065 L4.79998779,9.065 L5.26427351,9.065 L17.3357021,9.065 L17.7999878,9.065 L17.7999878,7.065 L17.3357021,7.065 Z M17.4071307,4.065 L7.19284494,4.065 L6.79998779,4.065 L6.79998779,6.065 L7.19284494,6.065 L17.4071307,6.065 L17.7999878,6.065 L17.7999878,4.065 L17.4071307,4.065 Z" id="Combined-Shape"></path>
        </g>
    </g>
</svg>