<?xml version="1.0" encoding="UTF-8"?>
<svg width="36px" height="28px" viewBox="0 0 36 28" version="1.1" xmlns="http://www.w3.org/2000/svg" xmlns:xlink="http://www.w3.org/1999/xlink">
    <!-- Generator: Sketch 47.1 (45422) - http://www.bohemiancoding.com/sketch -->
    <title>relationship</title>
    <desc>Created with Sketch.</desc>
    <defs></defs>
    <g id="Page-1" stroke="none" stroke-width="1" fill="none" fill-rule="evenodd">
        <path d="M18.8061871,18.157121 C18.8296944,18.1381361 18.8524581,18.1177988 18.8743714,18.0961091 L27.8076236,9.16285688 L31.175076,12.5303092 C31.8708009,13.2260342 32.4445947,12.9893443 32.4445947,12.0067224 L32.4445947,1.24808866 C32.4410085,0.258294356 31.634111,-0.548603175 30.6479029,-0.548603175 L19.8892692,-0.548603175 C18.9030611,-0.548603175 18.6663711,0.0216044135 19.3656823,0.720915607 L22.7331347,4.08836797 L17.38614,9.43536265 C17.3626327,9.45434756 17.339869,9.47468486 17.3179557,9.49637453 L8.38470349,18.4296267 L5.01725113,15.0621744 C4.32152614,14.3664494 3.74773234,14.6031393 3.74773234,15.5857612 L3.74773234,26.344395 C3.75131856,27.3341893 4.55821609,28.1410868 5.54442418,28.1410868 L16.3030579,28.1410868 C17.289266,28.1410868 17.525956,27.5708792 16.8266448,26.871568 L13.4591924,23.5041157 L18.8061871,18.157121 Z" id="relationship" fill="#000000" transform="translate(18.096164, 13.796242) rotate(15.000000) translate(-18.096164, -13.796242) "></path>
    </g>
</svg>